<svg width="20" height="20" viewBox="0 0 20 20" fill="none" xmlns="http://www.w3.org/2000/svg">
<path fill-rule="evenodd" clip-rule="evenodd" d="M17.1596 20.0003H10.9093V13.6357H18.1818V18.9903C18.1818 19.5481 17.724 20.0003 17.1596 20.0003ZM1.81819 18.9897V13.6362H9.0907V20.0008H2.84045C2.27599 20.0008 1.81819 19.5475 1.81819 18.9897ZM19.0007 4.54573H16.954C17.1529 4.13127 17.274 3.67237 17.274 3.18124C17.274 1.42783 15.8462 0 14.0917 0C12.0016 0 10.7349 1.46672 10.0004 2.85456C9.26592 1.46672 8.00031 0 5.91023 0C4.15572 0 2.72677 1.42783 2.72677 3.18124C2.72677 3.67237 2.849 4.13127 3.0479 4.54573H1.00115C0.448906 4.54573 0 5.19687 0 6.00135V10.3637C0 11.1671 0.448906 11.8194 1.00115 11.8194H1.81896H9.09147V4.54573H10.9104V11.8194H18.1829H19.0007C19.553 11.8194 20.0008 11.1671 20.0008 10.3637V6.00135C20.0008 5.19687 19.553 4.54573 19.0007 4.54573ZM14.0908 4.54507H11.2229C11.6518 3.41614 12.5341 1.8183 14.0908 1.8183C14.843 1.8183 15.4553 2.42943 15.4553 3.18057C15.4553 3.93282 14.843 4.54507 14.0908 4.54507ZM5.90936 4.54507C5.15711 4.54507 4.54486 3.93282 4.54486 3.18057C4.54486 2.42943 5.15711 1.8183 5.90936 1.8183C7.46609 1.8183 8.34835 3.41614 8.77725 4.54507H5.90936Z" fill="#C4C4C4"/>
</svg>
